M48
; DRILL file {KiCad 7.0.6-0} date 2024 June 08, Saturday 16:42:38
; FORMAT={-:-/ absolute / inch / decimal}
; #@! TF.CreationDate,2024-06-08T16:42:38-07:00
; #@! TF.GenerationSoftware,Kicad,Pcbnew,7.0.6-0
; #@! TF.FileFunction,Plated,1,4,PTH
FMAT,2
INCH
; #@! TA.AperFunction,Plated,PTH,ViaDrill
T1C0.0098
; #@! TA.AperFunction,Plated,PTH,ViaDrill
T2C0.0157
; #@! TA.AperFunction,Plated,PTH,ComponentDrill
T3C0.0236
; #@! TA.AperFunction,Plated,PTH,ComponentDrill
T4C0.0394
; #@! TA.AperFunction,Plated,PTH,ComponentDrill
T5C0.0400
; #@! TA.AperFunction,Plated,PTH,ComponentDrill
T6C0.0866
%
G90
G05
T1
X3.94Y-3.475
X4.16Y-3.53
X4.1821Y-3.3326
X4.2136Y-3.3326
X4.2609Y-3.3326
X4.2924Y-3.3326
X4.8535Y-1.9534
X4.8535Y-2.0479
X5.0465Y-1.9534
T2
X3.465Y-3.4775
X3.535Y-3.4792
X3.573Y-3.596
X3.609Y-3.975
X3.61Y-3.39
X3.67Y-4.165
X3.67Y-3.3719
X3.67Y-4.055
X3.72Y-3.36
X3.762Y-3.3413
X3.806Y-3.633
X3.806Y-3.952
X3.89Y-3.23
X3.9Y-2.945
X4.0421Y-3.7198
X4.0514Y-3.3043
X4.0852Y-3.1418
X4.1Y-3.52
X4.1821Y-3.0998
X4.19Y-3.435
X4.26Y-2.26
X4.26Y-2.295
X4.2876Y-3.7053
X4.3Y-2.26
X4.3Y-2.295
X4.305Y-1.87
X4.305Y-1.92
X4.345Y-1.87
X4.345Y-1.92
X4.3721Y-3.2398
X4.375Y-3.636
X4.439Y-3.188
X4.4577Y-3.4763
X4.507Y-3.54
X4.533Y-3.302
X4.56Y-3.385
X4.5932Y-3.4387
X4.625Y-3.407
X5.119Y-3.636
X5.191Y-2.299
X5.191Y-2.339
X5.225Y-2.299
X5.225Y-2.339
X5.35Y-3.125
X5.35Y-3.275
X5.355Y-2.08
X5.355Y-2.12
X5.39Y-2.08
X5.39Y-2.12
X5.425Y-2.08
X5.425Y-2.12
T4
X2.5944Y-2.0644
X2.5944Y-2.1644
X2.5944Y-2.2644
X2.595Y-2.56
X2.595Y-2.66
X2.595Y-2.76
T5
X3.07Y-2.1557
X3.07Y-2.2542
X3.07Y-2.3526
X3.07Y-2.451
X3.07Y-2.5494
X3.07Y-2.6479
X3.07Y-2.7463
X3.07Y-2.8447
X3.07Y-2.9431
X3.07Y-3.0416
X3.07Y-3.14
X3.07Y-3.2384
X3.07Y-3.3369
X3.07Y-3.4353
X3.07Y-3.5337
X3.07Y-3.6321
X3.07Y-3.7306
X3.07Y-3.829
X3.07Y-3.9274
X3.07Y-4.0258
X3.07Y-4.1243
X3.07Y-4.2227
X3.07Y-4.3211
X3.07Y-4.4195
X3.07Y-4.518
X3.27Y-2.1557
X3.27Y-2.2542
X3.27Y-2.3526
X3.27Y-2.451
X3.27Y-2.5494
X3.27Y-2.6479
X3.27Y-2.7463
X3.27Y-2.8447
X3.27Y-2.9431
X3.27Y-3.0416
X3.27Y-3.14
X3.27Y-3.2384
X3.27Y-3.3369
X3.27Y-3.4353
X3.27Y-3.5337
X3.27Y-3.6321
X3.27Y-3.7306
X3.27Y-3.829
X3.27Y-3.9274
X3.27Y-4.0258
X3.27Y-4.1243
X3.27Y-4.2227
X3.27Y-4.3211
X3.27Y-4.4195
X3.27Y-4.518
T6
X2.49Y-1.765
X2.49Y-4.915
X5.53Y-1.775
X5.55Y-4.905
T3
G00X4.7799Y-1.7211
M15
G01X4.7799Y-1.6975
M16
G05
G00X4.7799Y-1.8956
M15
G01X4.7799Y-1.8522
M16
G05
G00X5.1201Y-1.7211
M15
G01X5.1201Y-1.6975
M16
G05
G00X5.1201Y-1.8956
M15
G01X5.1201Y-1.8522
M16
G05
T0
M30
