%TF.GenerationSoftware,KiCad,Pcbnew,7.0.6-0*%
%TF.CreationDate,2024-06-08T16:42:38-07:00*%
%TF.ProjectId,pc64,70633634-2e6b-4696-9361-645f70636258,rev?*%
%TF.SameCoordinates,Original*%
%TF.FileFunction,Paste,Top*%
%TF.FilePolarity,Positive*%
%FSLAX46Y46*%
G04 Gerber Fmt 4.6, Leading zero omitted, Abs format (unit mm)*
G04 Created by KiCad (PCBNEW 7.0.6-0) date 2024-06-08 16:42:38*
%MOMM*%
%LPD*%
G01*
G04 APERTURE LIST*
G04 Aperture macros list*
%AMRoundRect*
0 Rectangle with rounded corners*
0 $1 Rounding radius*
0 $2 $3 $4 $5 $6 $7 $8 $9 X,Y pos of 4 corners*
0 Add a 4 corners polygon primitive as box body*
4,1,4,$2,$3,$4,$5,$6,$7,$8,$9,$2,$3,0*
0 Add four circle primitives for the rounded corners*
1,1,$1+$1,$2,$3*
1,1,$1+$1,$4,$5*
1,1,$1+$1,$6,$7*
1,1,$1+$1,$8,$9*
0 Add four rect primitives between the rounded corners*
20,1,$1+$1,$2,$3,$4,$5,0*
20,1,$1+$1,$4,$5,$6,$7,0*
20,1,$1+$1,$6,$7,$8,$9,0*
20,1,$1+$1,$8,$9,$2,$3,0*%
G04 Aperture macros list end*
%ADD10RoundRect,0.050000X0.300000X0.725000X-0.300000X0.725000X-0.300000X-0.725000X0.300000X-0.725000X0*%
%ADD11RoundRect,0.050000X0.150000X0.725000X-0.150000X0.725000X-0.150000X-0.725000X0.150000X-0.725000X0*%
%ADD12R,3.900000X6.200000*%
%ADD13R,3.300000X4.400000*%
%ADD14RoundRect,0.140000X-0.170000X0.140000X-0.170000X-0.140000X0.170000X-0.140000X0.170000X0.140000X0*%
%ADD15RoundRect,0.135000X0.185000X-0.135000X0.185000X0.135000X-0.185000X0.135000X-0.185000X-0.135000X0*%
%ADD16RoundRect,0.140000X-0.140000X-0.170000X0.140000X-0.170000X0.140000X0.170000X-0.140000X0.170000X0*%
%ADD17R,1.500000X2.000000*%
%ADD18R,3.800000X2.000000*%
%ADD19RoundRect,0.140000X0.140000X0.170000X-0.140000X0.170000X-0.140000X-0.170000X0.140000X-0.170000X0*%
%ADD20R,1.200000X1.400000*%
%ADD21RoundRect,0.140000X0.170000X-0.140000X0.170000X0.140000X-0.170000X0.140000X-0.170000X-0.140000X0*%
%ADD22RoundRect,0.150000X0.150000X-0.650000X0.150000X0.650000X-0.150000X0.650000X-0.150000X-0.650000X0*%
%ADD23R,1.000000X1.700000*%
%ADD24RoundRect,0.150000X-0.512500X-0.150000X0.512500X-0.150000X0.512500X0.150000X-0.512500X0.150000X0*%
%ADD25RoundRect,0.250000X0.375000X0.625000X-0.375000X0.625000X-0.375000X-0.625000X0.375000X-0.625000X0*%
%ADD26RoundRect,0.250000X-0.292217X-0.292217X0.292217X-0.292217X0.292217X0.292217X-0.292217X0.292217X0*%
%ADD27RoundRect,0.050000X-0.387500X-0.050000X0.387500X-0.050000X0.387500X0.050000X-0.387500X0.050000X0*%
%ADD28RoundRect,0.050000X-0.050000X-0.387500X0.050000X-0.387500X0.050000X0.387500X-0.050000X0.387500X0*%
%ADD29RoundRect,0.135000X-0.185000X0.135000X-0.185000X-0.135000X0.185000X-0.135000X0.185000X0.135000X0*%
G04 APERTURE END LIST*
D10*
%TO.C,J1*%
X128955000Y-48512000D03*
X128180000Y-48512000D03*
D11*
X126980000Y-48512000D03*
X125980000Y-48512000D03*
X125480000Y-48512000D03*
X124480000Y-48512000D03*
D10*
X123280000Y-48512000D03*
X122505000Y-48512000D03*
X122505000Y-48512000D03*
X123280000Y-48512000D03*
D11*
X123980000Y-48512000D03*
X124980000Y-48512000D03*
X126480000Y-48512000D03*
X127480000Y-48512000D03*
D10*
X128180000Y-48512000D03*
X128955000Y-48512000D03*
%TD*%
D12*
%TO.C,CART 12V*%
X100130000Y-48133000D03*
X113030000Y-48133000D03*
D13*
X105880000Y-57133000D03*
%TD*%
D14*
%TO.C,C3*%
X102716000Y-91799000D03*
X102716000Y-92759000D03*
%TD*%
D15*
%TO.C,R4*%
X108088980Y-80889000D03*
X108088980Y-79869000D03*
%TD*%
D16*
%TO.C,C13*%
X100916000Y-88249000D03*
X101876000Y-88249000D03*
%TD*%
D17*
%TO.C,U1002*%
X134634000Y-56413000D03*
X132334000Y-56413000D03*
X130034000Y-56413000D03*
D18*
X132334000Y-62713000D03*
%TD*%
D19*
%TO.C,C16*%
X108906000Y-92809000D03*
X107946000Y-92809000D03*
%TD*%
D14*
%TO.C,C7*%
X108246000Y-81739000D03*
X108246000Y-82699000D03*
%TD*%
D20*
%TO.C,Y1*%
X105726000Y-94569000D03*
X105726000Y-92369000D03*
X104026000Y-92369000D03*
X104026000Y-94569000D03*
%TD*%
D21*
%TO.C,C1002*%
X136448800Y-56560600D03*
X136448800Y-55600600D03*
%TD*%
D16*
%TO.C,C4*%
X107006000Y-94559000D03*
X107966000Y-94559000D03*
%TD*%
D15*
%TO.C,R1*%
X130750000Y-46347000D03*
X130750000Y-45327000D03*
%TD*%
D14*
%TO.C,C9*%
X110086000Y-81739000D03*
X110086000Y-82699000D03*
%TD*%
D19*
%TO.C,C11*%
X111936000Y-88249000D03*
X110976000Y-88249000D03*
%TD*%
D22*
%TO.C,U3*%
X100751000Y-82079000D03*
X102021000Y-82079000D03*
X103291000Y-82079000D03*
X104561000Y-82079000D03*
X104561000Y-74879000D03*
X103291000Y-74879000D03*
X102021000Y-74879000D03*
X100751000Y-74879000D03*
%TD*%
D15*
%TO.C,R3*%
X107148980Y-80889000D03*
X107148980Y-79869000D03*
%TD*%
D14*
%TO.C,C8*%
X109166000Y-81739000D03*
X109166000Y-82699000D03*
%TD*%
D23*
%TO.C,RP_SW2*%
X130048000Y-89612000D03*
X130048000Y-83312000D03*
X133848000Y-89612000D03*
X133848000Y-83312000D03*
%TD*%
D24*
%TO.C,U1001*%
X124592500Y-50117000D03*
X124592500Y-51067000D03*
X124592500Y-52017000D03*
X126867500Y-52017000D03*
X126867500Y-51067000D03*
X126867500Y-50117000D03*
%TD*%
D23*
%TO.C,RP_SW1*%
X130058000Y-79325000D03*
X130058000Y-73025000D03*
X133858000Y-79325000D03*
X133858000Y-73025000D03*
%TD*%
D14*
%TO.C,C14*%
X101846000Y-83559000D03*
X101846000Y-84519000D03*
%TD*%
D16*
%TO.C,C1001*%
X131981000Y-53975000D03*
X132941000Y-53975000D03*
%TD*%
D14*
%TO.C,C10*%
X111006000Y-83559000D03*
X111006000Y-84519000D03*
%TD*%
%TO.C,C5*%
X106066000Y-81739000D03*
X106066000Y-82699000D03*
%TD*%
%TO.C,C15*%
X106986000Y-81739000D03*
X106986000Y-82699000D03*
%TD*%
D25*
%TO.C,F1*%
X124330000Y-53887000D03*
X127130000Y-53887000D03*
%TD*%
D15*
%TO.C,R2*%
X120700000Y-46357000D03*
X120700000Y-45337000D03*
%TD*%
D19*
%TO.C,C6*%
X108906000Y-91889000D03*
X107946000Y-91889000D03*
%TD*%
D26*
%TO.C,U4*%
X105788500Y-86611500D03*
X105788500Y-87886500D03*
X107063500Y-86611500D03*
X107063500Y-87886500D03*
D27*
X102988500Y-84649000D03*
X102988500Y-85049000D03*
X102988500Y-85449000D03*
X102988500Y-85849000D03*
X102988500Y-86249000D03*
X102988500Y-86649000D03*
X102988500Y-87049000D03*
X102988500Y-87449000D03*
X102988500Y-87849000D03*
X102988500Y-88249000D03*
X102988500Y-88649000D03*
X102988500Y-89049000D03*
X102988500Y-89449000D03*
X102988500Y-89849000D03*
D28*
X103826000Y-90686500D03*
X104226000Y-90686500D03*
X104626000Y-90686500D03*
X105026000Y-90686500D03*
X105426000Y-90686500D03*
X105826000Y-90686500D03*
X106226000Y-90686500D03*
X106626000Y-90686500D03*
X107026000Y-90686500D03*
X107426000Y-90686500D03*
X107826000Y-90686500D03*
X108226000Y-90686500D03*
X108626000Y-90686500D03*
X109026000Y-90686500D03*
D27*
X109863500Y-89849000D03*
X109863500Y-89449000D03*
X109863500Y-89049000D03*
X109863500Y-88649000D03*
X109863500Y-88249000D03*
X109863500Y-87849000D03*
X109863500Y-87449000D03*
X109863500Y-87049000D03*
X109863500Y-86649000D03*
X109863500Y-86249000D03*
X109863500Y-85849000D03*
X109863500Y-85449000D03*
X109863500Y-85049000D03*
X109863500Y-84649000D03*
D28*
X109026000Y-83811500D03*
X108626000Y-83811500D03*
X108226000Y-83811500D03*
X107826000Y-83811500D03*
X107426000Y-83811500D03*
X107026000Y-83811500D03*
X106626000Y-83811500D03*
X106226000Y-83811500D03*
X105826000Y-83811500D03*
X105426000Y-83811500D03*
X105026000Y-83811500D03*
X104626000Y-83811500D03*
X104226000Y-83811500D03*
X103826000Y-83811500D03*
%TD*%
D29*
%TO.C,R1001*%
X107046000Y-92659000D03*
X107046000Y-93679000D03*
%TD*%
M02*
