%TF.GenerationSoftware,KiCad,Pcbnew,7.0.6-0*%
%TF.CreationDate,2024-06-08T16:42:37-07:00*%
%TF.ProjectId,pc64,70633634-2e6b-4696-9361-645f70636258,rev?*%
%TF.SameCoordinates,Original*%
%TF.FileFunction,Copper,L1,Top*%
%TF.FilePolarity,Positive*%
%FSLAX46Y46*%
G04 Gerber Fmt 4.6, Leading zero omitted, Abs format (unit mm)*
G04 Created by KiCad (PCBNEW 7.0.6-0) date 2024-06-08 16:42:37*
%MOMM*%
%LPD*%
G01*
G04 APERTURE LIST*
G04 Aperture macros list*
%AMRoundRect*
0 Rectangle with rounded corners*
0 $1 Rounding radius*
0 $2 $3 $4 $5 $6 $7 $8 $9 X,Y pos of 4 corners*
0 Add a 4 corners polygon primitive as box body*
4,1,4,$2,$3,$4,$5,$6,$7,$8,$9,$2,$3,0*
0 Add four circle primitives for the rounded corners*
1,1,$1+$1,$2,$3*
1,1,$1+$1,$4,$5*
1,1,$1+$1,$6,$7*
1,1,$1+$1,$8,$9*
0 Add four rect primitives between the rounded corners*
20,1,$1+$1,$2,$3,$4,$5,0*
20,1,$1+$1,$4,$5,$6,$7,0*
20,1,$1+$1,$6,$7,$8,$9,0*
20,1,$1+$1,$8,$9,$2,$3,0*%
G04 Aperture macros list end*
%TA.AperFunction,SMDPad,CuDef*%
%ADD10R,0.600000X1.450000*%
%TD*%
%TA.AperFunction,SMDPad,CuDef*%
%ADD11R,0.300000X1.450000*%
%TD*%
%TA.AperFunction,ComponentPad*%
%ADD12O,1.000000X2.100000*%
%TD*%
%TA.AperFunction,ComponentPad*%
%ADD13O,1.000000X1.600000*%
%TD*%
%TA.AperFunction,SMDPad,CuDef*%
%ADD14R,3.900000X6.200000*%
%TD*%
%TA.AperFunction,SMDPad,CuDef*%
%ADD15R,3.300000X4.400000*%
%TD*%
%TA.AperFunction,ComponentPad*%
%ADD16C,2.600000*%
%TD*%
%TA.AperFunction,ConnectorPad*%
%ADD17C,3.500000*%
%TD*%
%TA.AperFunction,SMDPad,CuDef*%
%ADD18RoundRect,0.140000X-0.170000X0.140000X-0.170000X-0.140000X0.170000X-0.140000X0.170000X0.140000X0*%
%TD*%
%TA.AperFunction,SMDPad,CuDef*%
%ADD19RoundRect,0.135000X0.185000X-0.135000X0.185000X0.135000X-0.185000X0.135000X-0.185000X-0.135000X0*%
%TD*%
%TA.AperFunction,SMDPad,CuDef*%
%ADD20RoundRect,0.140000X-0.140000X-0.170000X0.140000X-0.170000X0.140000X0.170000X-0.140000X0.170000X0*%
%TD*%
%TA.AperFunction,SMDPad,CuDef*%
%ADD21R,1.500000X2.000000*%
%TD*%
%TA.AperFunction,SMDPad,CuDef*%
%ADD22R,3.800000X2.000000*%
%TD*%
%TA.AperFunction,SMDPad,CuDef*%
%ADD23RoundRect,0.140000X0.140000X0.170000X-0.140000X0.170000X-0.140000X-0.170000X0.140000X-0.170000X0*%
%TD*%
%TA.AperFunction,ComponentPad*%
%ADD24C,1.524000*%
%TD*%
%TA.AperFunction,SMDPad,CuDef*%
%ADD25R,1.200000X1.400000*%
%TD*%
%TA.AperFunction,SMDPad,CuDef*%
%ADD26RoundRect,0.140000X0.170000X-0.140000X0.170000X0.140000X-0.170000X0.140000X-0.170000X-0.140000X0*%
%TD*%
%TA.AperFunction,ComponentPad*%
%ADD27O,1.700000X1.700000*%
%TD*%
%TA.AperFunction,ComponentPad*%
%ADD28R,1.700000X1.700000*%
%TD*%
%TA.AperFunction,SMDPad,CuDef*%
%ADD29RoundRect,0.150000X0.150000X-0.650000X0.150000X0.650000X-0.150000X0.650000X-0.150000X-0.650000X0*%
%TD*%
%TA.AperFunction,SMDPad,CuDef*%
%ADD30R,1.000000X1.700000*%
%TD*%
%TA.AperFunction,SMDPad,CuDef*%
%ADD31RoundRect,0.150000X-0.512500X-0.150000X0.512500X-0.150000X0.512500X0.150000X-0.512500X0.150000X0*%
%TD*%
%TA.AperFunction,SMDPad,CuDef*%
%ADD32RoundRect,0.250000X0.375000X0.625000X-0.375000X0.625000X-0.375000X-0.625000X0.375000X-0.625000X0*%
%TD*%
%TA.AperFunction,SMDPad,CuDef*%
%ADD33RoundRect,0.050000X-0.387500X-0.050000X0.387500X-0.050000X0.387500X0.050000X-0.387500X0.050000X0*%
%TD*%
%TA.AperFunction,SMDPad,CuDef*%
%ADD34RoundRect,0.050000X-0.050000X-0.387500X0.050000X-0.387500X0.050000X0.387500X-0.050000X0.387500X0*%
%TD*%
%TA.AperFunction,SMDPad,CuDef*%
%ADD35RoundRect,0.144000X-1.456000X-1.456000X1.456000X-1.456000X1.456000X1.456000X-1.456000X1.456000X0*%
%TD*%
%TA.AperFunction,SMDPad,CuDef*%
%ADD36RoundRect,0.135000X-0.185000X0.135000X-0.185000X-0.135000X0.185000X-0.135000X0.185000X0.135000X0*%
%TD*%
%TA.AperFunction,ViaPad*%
%ADD37C,0.800000*%
%TD*%
%TA.AperFunction,ViaPad*%
%ADD38C,0.500000*%
%TD*%
%TA.AperFunction,Conductor*%
%ADD39C,0.150000*%
%TD*%
%TA.AperFunction,Conductor*%
%ADD40C,0.200000*%
%TD*%
%TA.AperFunction,Conductor*%
%ADD41C,0.127000*%
%TD*%
%TA.AperFunction,Conductor*%
%ADD42C,0.300000*%
%TD*%
%TA.AperFunction,Conductor*%
%ADD43C,0.600000*%
%TD*%
%TA.AperFunction,Conductor*%
%ADD44C,0.500000*%
%TD*%
%TA.AperFunction,Conductor*%
%ADD45C,0.250000*%
%TD*%
G04 APERTURE END LIST*
D10*
%TO.P,J1,A1,GND*%
%TO.N,GND*%
X128955000Y-48512000D03*
%TO.P,J1,A4,VBUS*%
%TO.N,Net-(F1-Pad2)*%
X128180000Y-48512000D03*
D11*
%TO.P,J1,A5,CC1*%
%TO.N,Net-(J1-CC1)*%
X126980000Y-48512000D03*
%TO.P,J1,A6,D+*%
%TO.N,USB_D+*%
X125980000Y-48512000D03*
%TO.P,J1,A7,D-*%
%TO.N,USB_D-*%
X125480000Y-48512000D03*
%TO.P,J1,A8,SBU1*%
%TO.N,unconnected-(J1-SBU1-PadA8)*%
X124480000Y-48512000D03*
D10*
%TO.P,J1,A9,VBUS*%
%TO.N,Net-(F1-Pad2)*%
X123280000Y-48512000D03*
%TO.P,J1,A12,GND*%
%TO.N,GND*%
X122505000Y-48512000D03*
%TO.P,J1,B1,GND*%
X122505000Y-48512000D03*
%TO.P,J1,B4,VBUS*%
%TO.N,Net-(F1-Pad2)*%
X123280000Y-48512000D03*
D11*
%TO.P,J1,B5,CC2*%
%TO.N,Net-(J1-CC2)*%
X123980000Y-48512000D03*
%TO.P,J1,B6,D+*%
%TO.N,USB_D+*%
X124980000Y-48512000D03*
%TO.P,J1,B7,D-*%
%TO.N,USB_D-*%
X126480000Y-48512000D03*
%TO.P,J1,B8,SBU2*%
%TO.N,unconnected-(J1-SBU2-PadB8)*%
X127480000Y-48512000D03*
D10*
%TO.P,J1,B9,VBUS*%
%TO.N,Net-(F1-Pad2)*%
X128180000Y-48512000D03*
%TO.P,J1,B12,GND*%
%TO.N,GND*%
X128955000Y-48512000D03*
D12*
%TO.P,J1,S1,SHIELD*%
X130050000Y-47597000D03*
D13*
X130050000Y-43417000D03*
D12*
X121410000Y-47597000D03*
D13*
X121410000Y-43417000D03*
%TD*%
D14*
%TO.P,CART 12V,3*%
%TO.N,N/C*%
X100130000Y-48133000D03*
%TO.P,CART 12V,2*%
%TO.N,/CART_12V*%
X113030000Y-48133000D03*
D15*
%TO.P,CART 12V,1*%
%TO.N,GND*%
X105880000Y-57133000D03*
%TD*%
D16*
%TO.P,H1,1,1*%
%TO.N,GND*%
X63246000Y-124841000D03*
D17*
X63246000Y-124841000D03*
%TD*%
D18*
%TO.P,C3,1*%
%TO.N,Net-(U4-XIN)*%
X102716000Y-91799000D03*
%TO.P,C3,2*%
%TO.N,GND*%
X102716000Y-92759000D03*
%TD*%
D16*
%TO.P,H2,1,1*%
%TO.N,GND*%
X63246000Y-44831000D03*
D17*
X63246000Y-44831000D03*
%TD*%
D19*
%TO.P,R4,1*%
%TO.N,Net-(U4-USB_DM)*%
X108088980Y-80889000D03*
%TO.P,R4,2*%
%TO.N,USB_D-*%
X108088980Y-79869000D03*
%TD*%
D20*
%TO.P,C13,1*%
%TO.N,GND*%
X100916000Y-88249000D03*
%TO.P,C13,2*%
%TO.N,3.3V*%
X101876000Y-88249000D03*
%TD*%
D21*
%TO.P,U1002,1,GND*%
%TO.N,GND*%
X134634000Y-56413000D03*
%TO.P,U1002,2,VO*%
%TO.N,3.3V*%
X132334000Y-56413000D03*
%TO.P,U1002,3,VI*%
%TO.N,5V*%
X130034000Y-56413000D03*
D22*
%TO.P,U1002,4*%
%TO.N,N/C*%
X132334000Y-62713000D03*
%TD*%
D23*
%TO.P,C16,1*%
%TO.N,GND*%
X108906000Y-92809000D03*
%TO.P,C16,2*%
%TO.N,3.3V*%
X107946000Y-92809000D03*
%TD*%
D16*
%TO.P,H4,1,1*%
%TO.N,GND*%
X140970000Y-124587000D03*
D17*
X140970000Y-124587000D03*
%TD*%
D18*
%TO.P,C7,1*%
%TO.N,GND*%
X108246000Y-81739000D03*
%TO.P,C7,2*%
%TO.N,Net-(U4-VREG_VOUT)*%
X108246000Y-82699000D03*
%TD*%
D24*
%TO.P,U2,50,GND*%
%TO.N,GND*%
X77978000Y-54756000D03*
%TO.P,U2,49,RAUDIO*%
%TO.N,/CART_RAUDIO*%
X77978000Y-57256000D03*
%TO.P,U2,48,GND*%
%TO.N,GND*%
X77978000Y-59756000D03*
%TO.P,U2,47,GND*%
X77978000Y-62256000D03*
%TO.P,U2,46,VIDEO_SYNC*%
%TO.N,/CART_VIDEO_SYNC*%
X77978000Y-64756000D03*
%TO.P,U2,45,~{NMI}*%
%TO.N,/CART_NMI*%
X77978000Y-67256000D03*
%TO.P,U2,44,~{INT1}*%
%TO.N,/CART_INT1*%
X77978000Y-69756000D03*
%TO.P,U2,43,CIC_DCLK*%
%TO.N,/CIC_CLK*%
X77978000Y-72256000D03*
%TO.P,U2,42,VCC*%
%TO.N,3.3V*%
X77978000Y-74756000D03*
%TO.P,U2,41,AD7*%
%TO.N,/AD7*%
X77978000Y-77256000D03*
%TO.P,U2,40,AD6*%
%TO.N,/AD6*%
X77978000Y-79756000D03*
%TO.P,U2,39,12V*%
%TO.N,/CART_12V*%
X77978000Y-82256000D03*
%TO.P,U2,38,12V_EXP*%
X77978000Y-84756000D03*
%TO.P,U2,37,AD5*%
%TO.N,/AD5*%
X77978000Y-87256000D03*
%TO.P,U2,36,AD4*%
%TO.N,/AD4*%
X77978000Y-89756000D03*
%TO.P,U2,35,ALEH*%
%TO.N,/ALEH*%
X77978000Y-92256000D03*
%TO.P,U2,34,VCC*%
%TO.N,3.3V*%
X77978000Y-94756000D03*
%TO.P,U2,33,ALEL*%
%TO.N,/ALEL*%
X77978000Y-97256000D03*
%TO.P,U2,32,AD3*%
%TO.N,/AD3*%
X77978000Y-99756000D03*
%TO.P,U2,31,GND*%
%TO.N,GND*%
X77978000Y-102256000D03*
%TO.P,U2,30,AD2*%
%TO.N,/AD2*%
X77978000Y-104756000D03*
%TO.P,U2,29,AD1*%
%TO.N,/AD1*%
X77978000Y-107256000D03*
%TO.P,U2,28,AD0*%
%TO.N,/AD0*%
X77978000Y-109756000D03*
%TO.P,U2,27,GND*%
%TO.N,GND*%
X77978000Y-112256000D03*
%TO.P,U2,26,GND*%
X77978000Y-114756000D03*
%TO.P,U2,25,GND*%
X83058000Y-54756000D03*
%TO.P,U2,24,LAUDIO*%
%TO.N,/CART_LAUDIO*%
X83058000Y-57256000D03*
%TO.P,U2,23,GND*%
%TO.N,GND*%
X83058000Y-59756000D03*
%TO.P,U2,22,GND*%
X83058000Y-62256000D03*
%TO.P,U2,21,SI_DAT*%
%TO.N,/N64_SI_DAT*%
X83058000Y-64756000D03*
%TO.P,U2,20,~{COLD_RESET}*%
%TO.N,/COLD_RESET*%
X83058000Y-67256000D03*
%TO.P,U2,19,SI_CLK*%
%TO.N,/N64_SI_CLK*%
X83058000Y-69756000D03*
%TO.P,U2,18,CIC_DIO*%
%TO.N,/CIC_DIO*%
X83058000Y-72256000D03*
%TO.P,U2,17,VCC*%
%TO.N,3.3V*%
X83058000Y-74756000D03*
%TO.P,U2,16,AD8*%
%TO.N,/AD8*%
X83058000Y-77256000D03*
%TO.P,U2,15,AD9*%
%TO.N,/AD9*%
X83058000Y-79756000D03*
%TO.P,U2,14,12V_EXP*%
%TO.N,/CART_12V*%
X83058000Y-82256000D03*
%TO.P,U2,13,12V*%
X83058000Y-84756000D03*
%TO.P,U2,12,AD10*%
%TO.N,/AD10*%
X83058000Y-87256000D03*
%TO.P,U2,11,AD11*%
%TO.N,/AD11*%
X83058000Y-89756000D03*
%TO.P,U2,10,~{READ}*%
%TO.N,/READ*%
X83058000Y-92256000D03*
%TO.P,U2,9,VCC*%
%TO.N,3.3V*%
X83058000Y-94756000D03*
%TO.P,U2,8,~{WRITE}*%
%TO.N,/WRITE*%
X83058000Y-97256000D03*
%TO.P,U2,7,AD12*%
%TO.N,/AD12*%
X83058000Y-99756000D03*
%TO.P,U2,6,GND*%
%TO.N,GND*%
X83058000Y-102256000D03*
%TO.P,U2,5,AD13*%
%TO.N,/AD13*%
X83058000Y-104756000D03*
%TO.P,U2,4,AD14*%
%TO.N,/AD14*%
X83058000Y-107256000D03*
%TO.P,U2,3,AD15*%
%TO.N,/AD15*%
X83058000Y-109756000D03*
%TO.P,U2,2,GND*%
%TO.N,GND*%
X83058000Y-112256000D03*
%TO.P,U2,1,GND*%
X83058000Y-114756000D03*
%TD*%
D25*
%TO.P,Y1,1,1*%
%TO.N,Net-(C4-Pad1)*%
X105726000Y-94569000D03*
%TO.P,Y1,2,2*%
%TO.N,GND*%
X105726000Y-92369000D03*
%TO.P,Y1,3,3*%
%TO.N,Net-(U4-XIN)*%
X104026000Y-92369000D03*
%TO.P,Y1,4,4*%
%TO.N,GND*%
X104026000Y-94569000D03*
%TD*%
D26*
%TO.P,C1002,1*%
%TO.N,3.3V*%
X136448800Y-56560600D03*
%TO.P,C1002,2*%
%TO.N,GND*%
X136448800Y-55600600D03*
%TD*%
D20*
%TO.P,C4,1*%
%TO.N,Net-(C4-Pad1)*%
X107006000Y-94559000D03*
%TO.P,C4,2*%
%TO.N,GND*%
X107966000Y-94559000D03*
%TD*%
D19*
%TO.P,R1,1*%
%TO.N,GND*%
X130750000Y-46347000D03*
%TO.P,R1,2*%
%TO.N,Net-(J1-CC1)*%
X130750000Y-45327000D03*
%TD*%
D18*
%TO.P,C9,1*%
%TO.N,GND*%
X110086000Y-81739000D03*
%TO.P,C9,2*%
%TO.N,3.3V*%
X110086000Y-82699000D03*
%TD*%
D27*
%TO.P,CON2,3,3*%
%TO.N,/CART_INT1*%
X65913000Y-70104000D03*
%TO.P,CON2,2,2*%
%TO.N,/CART_NMI*%
X65913000Y-67564000D03*
D28*
%TO.P,CON2,1,1*%
%TO.N,/CART_VIDEO_SYNC*%
X65913000Y-65024000D03*
%TD*%
D23*
%TO.P,C11,1*%
%TO.N,GND*%
X111936000Y-88249000D03*
%TO.P,C11,2*%
%TO.N,3.3V*%
X110976000Y-88249000D03*
%TD*%
D29*
%TO.P,U3,1,~{CS}*%
%TO.N,QSPI_CSn_Pull*%
X100751000Y-82079000D03*
%TO.P,U3,2,DO(IO1)*%
%TO.N,RP_SD1*%
X102021000Y-82079000D03*
%TO.P,U3,3,IO2*%
%TO.N,RP_SD2*%
X103291000Y-82079000D03*
%TO.P,U3,4,GND*%
%TO.N,GND*%
X104561000Y-82079000D03*
%TO.P,U3,5,DI(IO0)*%
%TO.N,RP_SD0*%
X104561000Y-74879000D03*
%TO.P,U3,6,CLK*%
%TO.N,RP_CLK*%
X103291000Y-74879000D03*
%TO.P,U3,7,IO3*%
%TO.N,RP_SD3*%
X102021000Y-74879000D03*
%TO.P,U3,8,VCC*%
%TO.N,3.3V*%
X100751000Y-74879000D03*
%TD*%
D16*
%TO.P,H3,1,1*%
%TO.N,GND*%
X140462000Y-45085000D03*
D17*
X140462000Y-45085000D03*
%TD*%
D19*
%TO.P,R3,1*%
%TO.N,Net-(U4-USB_DP)*%
X107148980Y-80889000D03*
%TO.P,R3,2*%
%TO.N,USB_D+*%
X107148980Y-79869000D03*
%TD*%
D18*
%TO.P,C8,1*%
%TO.N,GND*%
X109166000Y-81739000D03*
%TO.P,C8,2*%
%TO.N,3.3V*%
X109166000Y-82699000D03*
%TD*%
D30*
%TO.P,RP_SW2,1,1*%
%TO.N,RUN_PULL*%
X130048000Y-89612000D03*
X130048000Y-83312000D03*
%TO.P,RP_SW2,2,2*%
%TO.N,GND*%
X133848000Y-89612000D03*
X133848000Y-83312000D03*
%TD*%
D31*
%TO.P,U1001,1,IO1*%
%TO.N,USB_D+*%
X124592500Y-50117000D03*
%TO.P,U1001,2,VN*%
%TO.N,GND*%
X124592500Y-51067000D03*
%TO.P,U1001,3,IO2*%
%TO.N,unconnected-(U1001-IO2-Pad3)*%
X124592500Y-52017000D03*
%TO.P,U1001,4,IO3*%
%TO.N,unconnected-(U1001-IO3-Pad4)*%
X126867500Y-52017000D03*
%TO.P,U1001,5,VP*%
%TO.N,5V*%
X126867500Y-51067000D03*
%TO.P,U1001,6,IO4*%
%TO.N,USB_D-*%
X126867500Y-50117000D03*
%TD*%
D30*
%TO.P,RP_SW1,1,1*%
%TO.N,QSPI_CSn_Pull*%
X130058000Y-79325000D03*
X130058000Y-73025000D03*
%TO.P,RP_SW1,2,2*%
%TO.N,GND*%
X133858000Y-79325000D03*
X133858000Y-73025000D03*
%TD*%
D18*
%TO.P,C14,1*%
%TO.N,GND*%
X101846000Y-83559000D03*
%TO.P,C14,2*%
%TO.N,3.3V*%
X101846000Y-84519000D03*
%TD*%
D20*
%TO.P,C1001,1*%
%TO.N,5V*%
X131981000Y-53975000D03*
%TO.P,C1001,2*%
%TO.N,GND*%
X132941000Y-53975000D03*
%TD*%
D18*
%TO.P,C10,1*%
%TO.N,GND*%
X111006000Y-83559000D03*
%TO.P,C10,2*%
%TO.N,3.3V*%
X111006000Y-84519000D03*
%TD*%
%TO.P,C5,1*%
%TO.N,GND*%
X106066000Y-81739000D03*
%TO.P,C5,2*%
%TO.N,Net-(U4-VREG_VOUT)*%
X106066000Y-82699000D03*
%TD*%
D27*
%TO.P,CON3,3,3*%
%TO.N,GND*%
X65898000Y-52436000D03*
%TO.P,CON3,2,2*%
%TO.N,/CART_RAUDIO*%
X65898000Y-54976000D03*
D28*
%TO.P,CON3,1,1*%
%TO.N,/CART_LAUDIO*%
X65898000Y-57516000D03*
%TD*%
D18*
%TO.P,C15,1*%
%TO.N,GND*%
X106986000Y-81739000D03*
%TO.P,C15,2*%
%TO.N,3.3V*%
X106986000Y-82699000D03*
%TD*%
D32*
%TO.P,F1,2*%
%TO.N,Net-(F1-Pad2)*%
X124330000Y-53887000D03*
%TO.P,F1,1*%
%TO.N,5V*%
X127130000Y-53887000D03*
%TD*%
D19*
%TO.P,R2,1*%
%TO.N,GND*%
X120700000Y-46357000D03*
%TO.P,R2,2*%
%TO.N,Net-(J1-CC2)*%
X120700000Y-45337000D03*
%TD*%
D23*
%TO.P,C6,1*%
%TO.N,GND*%
X108906000Y-91889000D03*
%TO.P,C6,2*%
%TO.N,Net-(U4-VREG_VOUT)*%
X107946000Y-91889000D03*
%TD*%
D33*
%TO.P,U4,1,IOVDD*%
%TO.N,3.3V*%
X102988500Y-84649000D03*
%TO.P,U4,2,GPIO0*%
%TO.N,/AD0*%
X102988500Y-85049000D03*
%TO.P,U4,3,GPIO1*%
%TO.N,/AD1*%
X102988500Y-85449000D03*
%TO.P,U4,4,GPIO2*%
%TO.N,/AD2*%
X102988500Y-85849000D03*
%TO.P,U4,5,GPIO3*%
%TO.N,/AD3*%
X102988500Y-86249000D03*
%TO.P,U4,6,GPIO4*%
%TO.N,/AD4*%
X102988500Y-86649000D03*
%TO.P,U4,7,GPIO5*%
%TO.N,/AD5*%
X102988500Y-87049000D03*
%TO.P,U4,8,GPIO6*%
%TO.N,/AD6*%
X102988500Y-87449000D03*
%TO.P,U4,9,GPIO7*%
%TO.N,/AD7*%
X102988500Y-87849000D03*
%TO.P,U4,10,IOVDD*%
%TO.N,3.3V*%
X102988500Y-88249000D03*
%TO.P,U4,11,GPIO8*%
%TO.N,/AD8*%
X102988500Y-88649000D03*
%TO.P,U4,12,GPIO9*%
%TO.N,/AD9*%
X102988500Y-89049000D03*
%TO.P,U4,13,GPIO10*%
%TO.N,/AD10*%
X102988500Y-89449000D03*
%TO.P,U4,14,GPIO11*%
%TO.N,/AD11*%
X102988500Y-89849000D03*
D34*
%TO.P,U4,15,GPIO12*%
%TO.N,/AD12*%
X103826000Y-90686500D03*
%TO.P,U4,16,GPIO13*%
%TO.N,/AD13*%
X104226000Y-90686500D03*
%TO.P,U4,17,GPIO14*%
%TO.N,/AD14*%
X104626000Y-90686500D03*
%TO.P,U4,18,GPIO15*%
%TO.N,/AD15*%
X105026000Y-90686500D03*
%TO.P,U4,19,TESTEN*%
%TO.N,GND*%
X105426000Y-90686500D03*
%TO.P,U4,20,XIN*%
%TO.N,Net-(U4-XIN)*%
X105826000Y-90686500D03*
%TO.P,U4,21,XOUT*%
%TO.N,Net-(U4-XOUT)*%
X106226000Y-90686500D03*
%TO.P,U4,22,IOVDD*%
%TO.N,3.3V*%
X106626000Y-90686500D03*
%TO.P,U4,23,DVDD*%
%TO.N,Net-(U4-VREG_VOUT)*%
X107026000Y-90686500D03*
%TO.P,U4,24,SWCLK*%
%TO.N,Net-(SWCLK1-Pin_1)*%
X107426000Y-90686500D03*
%TO.P,U4,25,SWD*%
%TO.N,Net-(SWD1-Pin_1)*%
X107826000Y-90686500D03*
%TO.P,U4,26,RUN*%
%TO.N,RUN_PULL*%
X108226000Y-90686500D03*
%TO.P,U4,27,GPIO16*%
%TO.N,/ALEL*%
X108626000Y-90686500D03*
%TO.P,U4,28,GPIO17*%
%TO.N,/ALEH*%
X109026000Y-90686500D03*
D33*
%TO.P,U4,29,GPIO18*%
%TO.N,/WRITE*%
X109863500Y-89849000D03*
%TO.P,U4,30,GPIO19*%
%TO.N,/READ*%
X109863500Y-89449000D03*
%TO.P,U4,31,GPIO20*%
%TO.N,/CIC_CLK*%
X109863500Y-89049000D03*
%TO.P,U4,32,GPIO21*%
%TO.N,/CIC_DIO*%
X109863500Y-88649000D03*
%TO.P,U4,33,IOVDD*%
%TO.N,3.3V*%
X109863500Y-88249000D03*
%TO.P,U4,34,GPIO22*%
%TO.N,/COLD_RESET*%
X109863500Y-87849000D03*
%TO.P,U4,35,GPIO23*%
%TO.N,/N64_SI_DAT*%
X109863500Y-87449000D03*
%TO.P,U4,36,GPIO24*%
%TO.N,/N64_SI_CLK*%
X109863500Y-87049000D03*
%TO.P,U4,37,GPIO25*%
%TO.N,unconnected-(U4-GPIO25-Pad37)*%
X109863500Y-86649000D03*
%TO.P,U4,38,GPIO26_ADC0*%
%TO.N,unconnected-(U4-GPIO26_ADC0-Pad38)*%
X109863500Y-86249000D03*
%TO.P,U4,39,GPIO27_ADC1*%
%TO.N,unconnected-(U4-GPIO27_ADC1-Pad39)*%
X109863500Y-85849000D03*
%TO.P,U4,40,GPIO28_ADC2*%
%TO.N,unconnected-(U4-GPIO28_ADC2-Pad40)*%
X109863500Y-85449000D03*
%TO.P,U4,41,GPIO29_ADC3*%
%TO.N,unconnected-(U4-GPIO29_ADC3-Pad41)*%
X109863500Y-85049000D03*
%TO.P,U4,42,IOVDD*%
%TO.N,3.3V*%
X109863500Y-84649000D03*
D34*
%TO.P,U4,43,ADC_AVDD*%
X109026000Y-83811500D03*
%TO.P,U4,44,VREG_IN*%
X108626000Y-83811500D03*
%TO.P,U4,45,VREG_VOUT*%
%TO.N,Net-(U4-VREG_VOUT)*%
X108226000Y-83811500D03*
%TO.P,U4,46,USB_DM*%
%TO.N,Net-(U4-USB_DM)*%
X107826000Y-83811500D03*
%TO.P,U4,47,USB_DP*%
%TO.N,Net-(U4-USB_DP)*%
X107426000Y-83811500D03*
%TO.P,U4,48,USB_VDD*%
%TO.N,3.3V*%
X107026000Y-83811500D03*
%TO.P,U4,49,IOVDD*%
X106626000Y-83811500D03*
%TO.P,U4,50,DVDD*%
%TO.N,Net-(U4-VREG_VOUT)*%
X106226000Y-83811500D03*
%TO.P,U4,51,QSPI_SD3*%
%TO.N,RP_SD3*%
X105826000Y-83811500D03*
%TO.P,U4,52,QSPI_SCLK*%
%TO.N,RP_CLK*%
X105426000Y-83811500D03*
%TO.P,U4,53,QSPI_SD0*%
%TO.N,RP_SD0*%
X105026000Y-83811500D03*
%TO.P,U4,54,QSPI_SD2*%
%TO.N,RP_SD2*%
X104626000Y-83811500D03*
%TO.P,U4,55,QSPI_SD1*%
%TO.N,RP_SD1*%
X104226000Y-83811500D03*
%TO.P,U4,56,QSPI_SS*%
%TO.N,QSPI_CSn_Pull*%
X103826000Y-83811500D03*
D35*
%TO.P,U4,57,GND*%
%TO.N,GND*%
X106426000Y-87249000D03*
%TD*%
D36*
%TO.P,R1001,1*%
%TO.N,Net-(U4-XOUT)*%
X107046000Y-92659000D03*
%TO.P,R1001,2*%
%TO.N,Net-(C4-Pad1)*%
X107046000Y-93679000D03*
%TD*%
D37*
%TO.N,GND*%
X108204000Y-57404000D03*
X108204000Y-58293000D03*
%TO.N,/CART_12V*%
X110363000Y-48768000D03*
X110363000Y-47498000D03*
X109347000Y-48768000D03*
X109347000Y-47498000D03*
%TO.N,GND*%
X109220000Y-58293000D03*
X109220000Y-57404000D03*
%TO.N,/N64_SI_DAT*%
X117475002Y-86537800D03*
%TO.N,/CIC_DIO*%
X115138200Y-83870800D03*
%TO.N,RUN_PULL*%
X111125000Y-92354400D03*
X130022600Y-92354400D03*
%TO.N,/AD0*%
X95554800Y-84869500D03*
%TO.N,/AD1*%
X93217986Y-105791000D03*
X94488000Y-85344000D03*
%TO.N,/AD2*%
X93218000Y-102997000D03*
X93218000Y-85646992D03*
%TO.N,/AD3*%
X91668600Y-100965000D03*
X91694000Y-86106006D03*
%TO.N,/AD8*%
X89788996Y-88371825D03*
%TO.N,/AD9*%
X88011000Y-88328000D03*
%TO.N,/AD14*%
X90754200Y-91338400D03*
%TO.N,/AD15*%
X104140000Y-89408000D03*
D38*
%TO.N,GND*%
X105664000Y-89662000D03*
D37*
X136906000Y-52832000D03*
D38*
X100076000Y-88265000D03*
D37*
X108906000Y-94113455D03*
X106226600Y-78734061D03*
X136906000Y-53848000D03*
X136017000Y-52832000D03*
X103765077Y-79800500D03*
X136017000Y-53848000D03*
X102670600Y-94482061D03*
X135890000Y-79375000D03*
X135890000Y-83185000D03*
X137795000Y-52832000D03*
X102906000Y-83929000D03*
X111052600Y-82290061D03*
X137795000Y-53848000D03*
X113224645Y-88298000D03*
X106426000Y-87249000D03*
%TO.N,/READ*%
X96672400Y-92278200D03*
X96672400Y-100380800D03*
%TO.N,/CIC_CLK*%
X114477800Y-89916000D03*
%TO.N,/COLD_RESET*%
X116668500Y-87342500D03*
D38*
%TO.N,3.3V*%
X107026000Y-84649000D03*
D37*
X132715000Y-58394598D03*
D38*
X109026000Y-84649000D03*
D37*
X99060000Y-74803000D03*
X131851400Y-58394600D03*
X132715000Y-59410600D03*
X131851400Y-59410600D03*
D38*
%TO.N,Net-(F1-Pad2)*%
X128180000Y-49617000D03*
X123280000Y-52017000D03*
X123280000Y-49617000D03*
D37*
%TO.N,QSPI_CSn_Pull*%
X98806000Y-82042000D03*
X112750600Y-80975200D03*
%TO.N,/N64_SI_CLK*%
X115824000Y-85978984D03*
D38*
%TO.N,Net-(U4-VREG_VOUT)*%
X106226000Y-84649000D03*
X108226000Y-84649000D03*
%TD*%
D39*
%TO.N,/ALEH*%
X109026000Y-90686500D02*
X111438300Y-90686500D01*
X79321000Y-93599000D02*
X77978000Y-92256000D01*
X111991000Y-91239200D02*
X111991000Y-95755600D01*
X88493600Y-98171000D02*
X83921600Y-93599000D01*
X111438300Y-90686500D02*
X111991000Y-91239200D01*
X83921600Y-93599000D02*
X79321000Y-93599000D01*
X111991000Y-95755600D02*
X109575600Y-98171000D01*
X109575600Y-98171000D02*
X88493600Y-98171000D01*
%TO.N,/CIC_CLK*%
X109863500Y-89049000D02*
X109877020Y-89062520D01*
X109877020Y-89062520D02*
X112024120Y-89062520D01*
X112024120Y-89062520D02*
X112877600Y-89916000D01*
X112877600Y-89916000D02*
X114477800Y-89916000D01*
%TO.N,/CIC_DIO*%
X115138200Y-83870800D02*
X117195600Y-83870800D01*
X117195600Y-83870800D02*
X118440200Y-85115400D01*
X118440200Y-85115400D02*
X118440200Y-87299800D01*
X116597500Y-89142500D02*
X112510500Y-89142500D01*
X118440200Y-87299800D02*
X116597500Y-89142500D01*
X112510500Y-89142500D02*
X112153520Y-88785520D01*
X110684183Y-88785520D02*
X110547663Y-88649000D01*
X112153520Y-88785520D02*
X110684183Y-88785520D01*
X110547663Y-88649000D02*
X109863500Y-88649000D01*
%TO.N,/AD6*%
X102988500Y-87449000D02*
X88338000Y-87449000D01*
X78536800Y-88392000D02*
X77216000Y-88392000D01*
X77216000Y-88392000D02*
X76530200Y-87706200D01*
X76530200Y-87706200D02*
X76530200Y-81203800D01*
X80441800Y-85471000D02*
X80441800Y-86487000D01*
X76530200Y-81203800D02*
X77978000Y-79756000D01*
X88338000Y-87449000D02*
X84404200Y-83515200D01*
X84404200Y-83515200D02*
X82397600Y-83515200D01*
X82397600Y-83515200D02*
X80441800Y-85471000D01*
X80441800Y-86487000D02*
X78536800Y-88392000D01*
%TO.N,/WRITE*%
X112699800Y-96215200D02*
X109321600Y-99593400D01*
X111449737Y-89849000D02*
X112699800Y-91099063D01*
X109863500Y-89849000D02*
X111449737Y-89849000D01*
X85395400Y-99593400D02*
X83058000Y-97256000D01*
X112699800Y-91099063D02*
X112699800Y-96215200D01*
X109321600Y-99593400D02*
X85395400Y-99593400D01*
%TO.N,/ALEL*%
X108626000Y-90686500D02*
X108626000Y-90257942D01*
X108626000Y-90257942D02*
X108861462Y-90022480D01*
X108861462Y-90022480D02*
X109190538Y-90022480D01*
X112344200Y-91135200D02*
X112344200Y-96037400D01*
X112344200Y-96037400D02*
X109423200Y-98958400D01*
X109190538Y-90022480D02*
X109417058Y-90249000D01*
X85217000Y-96012000D02*
X79222000Y-96012000D01*
X109417058Y-90249000D02*
X111458000Y-90249000D01*
X111458000Y-90249000D02*
X112344200Y-91135200D01*
X88163400Y-98958400D02*
X85217000Y-96012000D01*
X109423200Y-98958400D02*
X88163400Y-98958400D01*
X79222000Y-96012000D02*
X77978000Y-97256000D01*
D40*
%TO.N,USB_D-*%
X125955000Y-50419000D02*
X126257000Y-50117000D01*
X125955000Y-60037200D02*
X125955000Y-50419000D01*
X124680200Y-61312000D02*
X125955000Y-60037200D01*
X110265000Y-61312000D02*
X124680200Y-61312000D01*
X107843980Y-63733020D02*
X110265000Y-61312000D01*
X108088980Y-79388999D02*
X107843980Y-79143999D01*
X126257000Y-50117000D02*
X126867500Y-50117000D01*
X107843980Y-79143999D02*
X107843980Y-63733020D01*
X108088980Y-79869000D02*
X108088980Y-79388999D01*
D39*
%TO.N,/READ*%
X96672400Y-100380800D02*
X109118400Y-100380800D01*
X109118400Y-100380800D02*
X113030000Y-96469200D01*
X113030000Y-96469200D02*
X113030000Y-91037526D01*
X111441474Y-89449000D02*
X110998000Y-89449000D01*
X113030000Y-91037526D02*
X111441474Y-89449000D01*
%TO.N,/AD14*%
X103662618Y-91317000D02*
X103671618Y-91326000D01*
X90754200Y-91338400D02*
X90775600Y-91317000D01*
X90775600Y-91317000D02*
X103662618Y-91317000D01*
X104626000Y-91115058D02*
X104626000Y-90686500D01*
X103671618Y-91326000D02*
X104415058Y-91326000D01*
X104415058Y-91326000D02*
X104626000Y-91115058D01*
%TO.N,/AD12*%
X83058000Y-99756000D02*
X81854000Y-98552000D01*
X89310000Y-90649000D02*
X103826000Y-90649000D01*
X77343000Y-98552000D02*
X76604000Y-97813000D01*
X81854000Y-98552000D02*
X77343000Y-98552000D01*
X76604000Y-97813000D02*
X76604000Y-91925000D01*
X76604000Y-91925000D02*
X77343000Y-91186000D01*
X77343000Y-91186000D02*
X88773000Y-91186000D01*
X88773000Y-91186000D02*
X89310000Y-90649000D01*
%TO.N,/AD13*%
X77241400Y-105994200D02*
X76327000Y-105079800D01*
X77228263Y-90909000D02*
X88364200Y-90909000D01*
X103661462Y-90022480D02*
X103990538Y-90022480D01*
X76327000Y-105079800D02*
X76327000Y-91810263D01*
X83058000Y-104756000D02*
X81299000Y-104756000D01*
X80060800Y-105994200D02*
X77241400Y-105994200D01*
X89024200Y-90249000D02*
X103434942Y-90249000D01*
X76327000Y-91810263D02*
X77228263Y-90909000D01*
X88364200Y-90909000D02*
X89024200Y-90249000D01*
X103434942Y-90249000D02*
X103661462Y-90022480D01*
X81299000Y-104756000D02*
X80060800Y-105994200D01*
X103990538Y-90022480D02*
X104226000Y-90257942D01*
X104226000Y-90257942D02*
X104226000Y-90686500D01*
%TO.N,/AD4*%
X102988500Y-86649000D02*
X102929500Y-86708000D01*
X102929500Y-86708000D02*
X90949800Y-86708000D01*
X78994000Y-75996800D02*
X77241400Y-75996800D01*
X75844400Y-77393800D02*
X75844400Y-88925400D01*
X75844400Y-88925400D02*
X76675000Y-89756000D01*
X85013800Y-80772000D02*
X85013800Y-79476600D01*
X85013800Y-79476600D02*
X84023200Y-78486000D01*
X90949800Y-86708000D02*
X85013800Y-80772000D01*
X84023200Y-78486000D02*
X81483200Y-78486000D01*
X77241400Y-75996800D02*
X75844400Y-77393800D01*
X81483200Y-78486000D02*
X78994000Y-75996800D01*
X76675000Y-89756000D02*
X77978000Y-89756000D01*
%TO.N,/AD7*%
X77978000Y-77256000D02*
X76174600Y-79059400D01*
X86830231Y-87726000D02*
X102181337Y-87726000D01*
X76174600Y-79059400D02*
X76174600Y-87742338D01*
X102304337Y-87849000D02*
X102988500Y-87849000D01*
X76174600Y-87742338D02*
X77101262Y-88669000D01*
X77101262Y-88669000D02*
X78727738Y-88669000D01*
X78727738Y-88669000D02*
X81366938Y-86029800D01*
X102181337Y-87726000D02*
X102304337Y-87849000D01*
X81366938Y-86029800D02*
X85134031Y-86029800D01*
X85134031Y-86029800D02*
X86830231Y-87726000D01*
%TO.N,/AD5*%
X78021800Y-87256000D02*
X79781400Y-85496400D01*
X83896200Y-81026000D02*
X89919200Y-87049000D01*
X79781400Y-83616800D02*
X82372200Y-81026000D01*
X82372200Y-81026000D02*
X83896200Y-81026000D01*
X79781400Y-85496400D02*
X79781400Y-83616800D01*
X77978000Y-87256000D02*
X78021800Y-87256000D01*
X89919200Y-87049000D02*
X102988500Y-87049000D01*
%TO.N,/AD1*%
X93217986Y-105791000D02*
X92989386Y-106019600D01*
X92989386Y-106019600D02*
X81788000Y-106019600D01*
X81788000Y-106019600D02*
X80551600Y-107256000D01*
X80551600Y-107256000D02*
X77978000Y-107256000D01*
%TO.N,/READ*%
X96672400Y-92278200D02*
X96647000Y-92252800D01*
X96647000Y-92252800D02*
X83061200Y-92252800D01*
X83061200Y-92252800D02*
X83058000Y-92256000D01*
%TO.N,QSPI_CSn_Pull*%
X98806000Y-82042000D02*
X100714000Y-82042000D01*
X100714000Y-82042000D02*
X100751000Y-82079000D01*
X112750600Y-80975200D02*
X119430800Y-80975200D01*
X119430800Y-80975200D02*
X127381000Y-73025000D01*
X127381000Y-73025000D02*
X130058000Y-73025000D01*
%TO.N,/COLD_RESET*%
X116660400Y-87350600D02*
X111084938Y-87350600D01*
X110582339Y-87849000D02*
X109863500Y-87849000D01*
X111084938Y-87350600D02*
X110709538Y-87726000D01*
X110709538Y-87726000D02*
X110705339Y-87726000D01*
X116668500Y-87342500D02*
X116660400Y-87350600D01*
X110705339Y-87726000D02*
X110582339Y-87849000D01*
%TO.N,/N64_SI_DAT*%
X111455200Y-86588600D02*
X110594800Y-87449000D01*
X117475002Y-86537800D02*
X117424202Y-86588600D01*
X117424202Y-86588600D02*
X111455200Y-86588600D01*
X110594800Y-87449000D02*
X109863500Y-87449000D01*
%TO.N,/N64_SI_CLK*%
X109863500Y-87049000D02*
X110436000Y-87049000D01*
X110436000Y-87049000D02*
X111506000Y-85979000D01*
X111506000Y-85979000D02*
X115823984Y-85979000D01*
X115823984Y-85979000D02*
X115824000Y-85978984D01*
%TO.N,RUN_PULL*%
X130022600Y-92354400D02*
X130048000Y-92329000D01*
X130048000Y-92329000D02*
X130048000Y-89612000D01*
X111125000Y-92354400D02*
X110121120Y-91350520D01*
X110121120Y-91350520D02*
X108461462Y-91350520D01*
X108461462Y-91350520D02*
X108226000Y-91115058D01*
X108226000Y-91115058D02*
X108226000Y-90686500D01*
%TO.N,/AD3*%
X91668600Y-100965000D02*
X91617800Y-101015800D01*
X91617800Y-101015800D02*
X79237800Y-101015800D01*
X79237800Y-101015800D02*
X77978000Y-99756000D01*
%TO.N,/AD2*%
X77978000Y-104756000D02*
X79203600Y-103530400D01*
X79203600Y-103530400D02*
X92684600Y-103530400D01*
X92684600Y-103530400D02*
X93218000Y-102997000D01*
X102988500Y-85849000D02*
X102891500Y-85946000D01*
X102891500Y-85946000D02*
X94238643Y-85946000D01*
X94238643Y-85946000D02*
X93992243Y-85699600D01*
X93992243Y-85699600D02*
X93270608Y-85699600D01*
X93270608Y-85699600D02*
X93218000Y-85646992D01*
%TO.N,/AD1*%
X102966500Y-85471000D02*
X95304943Y-85471000D01*
X95304943Y-85471000D02*
X95177943Y-85344000D01*
X95177943Y-85344000D02*
X94488000Y-85344000D01*
%TO.N,/AD0*%
X95554800Y-84869500D02*
X95562900Y-84861400D01*
X96215200Y-84861400D02*
X96402800Y-85049000D01*
X95562900Y-84861400D02*
X96215200Y-84861400D01*
X96402800Y-85049000D02*
X102988500Y-85049000D01*
%TO.N,/AD10*%
X86233000Y-89027000D02*
X84462000Y-87256000D01*
X84462000Y-87256000D02*
X83058000Y-87256000D01*
D41*
%TO.N,RP_SD3*%
X102021000Y-74509000D02*
X102895020Y-73634980D01*
X105130980Y-73634980D02*
X105565980Y-74069980D01*
X102021000Y-74879000D02*
X102021000Y-74509000D01*
X102895020Y-73634980D02*
X105130980Y-73634980D01*
X105565980Y-74069980D02*
X105565980Y-82975698D01*
X105565980Y-82975698D02*
X105826000Y-83235718D01*
X105826000Y-83235718D02*
X105826000Y-83811500D01*
D42*
%TO.N,3.3V*%
X100675000Y-74803000D02*
X100751000Y-74879000D01*
X99060000Y-74803000D02*
X100675000Y-74803000D01*
D40*
%TO.N,USB_D+*%
X124493800Y-60862000D02*
X125505000Y-59850800D01*
X125505000Y-50419000D02*
X125203000Y-50117000D01*
X107148980Y-79869000D02*
X107148980Y-79388999D01*
X107148980Y-79388999D02*
X107393980Y-79143999D01*
X107393980Y-79143999D02*
X107393980Y-63356820D01*
X109888800Y-60862000D02*
X124493800Y-60862000D01*
X125505000Y-59850800D02*
X125505000Y-50419000D01*
X107393980Y-63356820D02*
X109888800Y-60862000D01*
X125203000Y-50117000D02*
X124592500Y-50117000D01*
D43*
%TO.N,GND*%
X136448800Y-55600600D02*
X136448800Y-54279800D01*
X136448800Y-54279800D02*
X136017000Y-53848000D01*
X136017000Y-53848000D02*
X136017000Y-53844618D01*
X132941000Y-53975000D02*
X135890000Y-53975000D01*
D41*
X135890000Y-53975000D02*
X136017000Y-53848000D01*
D43*
%TO.N,5V*%
X129540000Y-53975000D02*
X131981000Y-53975000D01*
D44*
%TO.N,3.3V*%
X136448800Y-56729200D02*
X136448800Y-57734200D01*
X136448800Y-57734200D02*
X135788400Y-58394600D01*
X135788400Y-58394600D02*
X131851400Y-58394600D01*
D41*
X136448800Y-56560600D02*
X136448800Y-56729200D01*
D42*
X132334000Y-56769000D02*
X132334000Y-56413000D01*
D41*
%TO.N,GND*%
X113206801Y-88298000D02*
X113224645Y-88298000D01*
X113157801Y-88249000D02*
X113206801Y-88298000D01*
%TO.N,RP_SD2*%
X104626000Y-83811500D02*
X104626000Y-83434561D01*
D43*
%TO.N,Net-(F1-Pad2)*%
X123280000Y-52182322D02*
X123280000Y-52017000D01*
X124330000Y-53887000D02*
X124330000Y-53232322D01*
X124330000Y-53232322D02*
X123280000Y-52182322D01*
%TO.N,5V*%
X127130000Y-53887000D02*
X127130000Y-53232322D01*
X127130000Y-53232322D02*
X127956520Y-52405802D01*
%TO.N,GND*%
X124592500Y-51067000D02*
X123702546Y-51067000D01*
X122325000Y-48512000D02*
X121410000Y-47597000D01*
X122505000Y-49869454D02*
X122505000Y-48512000D01*
X122505000Y-48512000D02*
X122325000Y-48512000D01*
X123702546Y-51067000D02*
X122505000Y-49869454D01*
D42*
%TO.N,Net-(J1-CC1)*%
X128829715Y-45327000D02*
X126980000Y-47176715D01*
X126980000Y-48512000D02*
X126980000Y-47176715D01*
X130750000Y-45327000D02*
X128829715Y-45327000D01*
%TO.N,GND*%
X130750000Y-46347000D02*
X130750000Y-46897000D01*
X130750000Y-46897000D02*
X130050000Y-47597000D01*
D43*
X129135000Y-48512000D02*
X130050000Y-47597000D01*
X128955000Y-48512000D02*
X129135000Y-48512000D01*
D42*
%TO.N,Net-(J1-CC2)*%
X123980000Y-47176715D02*
X122140285Y-45337000D01*
X123980000Y-48512000D02*
X123980000Y-47176715D01*
X122140285Y-45337000D02*
X120700000Y-45337000D01*
%TO.N,GND*%
X120700000Y-46887000D02*
X121410000Y-47597000D01*
X120700000Y-46357000D02*
X120700000Y-46887000D01*
D40*
%TO.N,USB_D+*%
X125980000Y-47744500D02*
X125980000Y-48512000D01*
X125745989Y-47510489D02*
X125980000Y-47744500D01*
X125214011Y-47510489D02*
X125745989Y-47510489D01*
X124980000Y-47744500D02*
X125214011Y-47510489D01*
X124980000Y-48512000D02*
X124980000Y-47744500D01*
X124980000Y-48512000D02*
X124980000Y-49847000D01*
%TO.N,USB_D-*%
X126480000Y-48512000D02*
X126480000Y-49847000D01*
X126245989Y-49513511D02*
X126480000Y-49279500D01*
X125480000Y-49279500D02*
X125714011Y-49513511D01*
X126480000Y-49279500D02*
X126480000Y-48512000D01*
X125480000Y-48512000D02*
X125480000Y-49279500D01*
X126245989Y-49513511D02*
X125714011Y-49513511D01*
D43*
%TO.N,5V*%
X127956520Y-51573520D02*
X127450000Y-51067000D01*
X127956520Y-52405802D02*
X127956520Y-51573520D01*
X127450000Y-51067000D02*
X126867500Y-51067000D01*
D45*
%TO.N,/CART_LAUDIO*%
X83058000Y-57256000D02*
X81894000Y-58420000D01*
X69596000Y-58420000D02*
X68692000Y-57516000D01*
X81894000Y-58420000D02*
X69596000Y-58420000D01*
X68692000Y-57516000D02*
X65898000Y-57516000D01*
D39*
%TO.N,/AD9*%
X88795040Y-89112040D02*
X88011000Y-88328000D01*
X102925460Y-89112040D02*
X88795040Y-89112040D01*
X102988500Y-89049000D02*
X102925460Y-89112040D01*
D45*
%TO.N,/CART_INT1*%
X65913000Y-70104000D02*
X77630000Y-70104000D01*
X77630000Y-70104000D02*
X77978000Y-69756000D01*
%TO.N,/CART_NMI*%
X65913000Y-67564000D02*
X66040000Y-67437000D01*
X66040000Y-67437000D02*
X77797000Y-67437000D01*
X77797000Y-67437000D02*
X77924000Y-67310000D01*
%TO.N,/CART_VIDEO_SYNC*%
X66180998Y-64756000D02*
X65912998Y-65024000D01*
X77978000Y-64756000D02*
X66180998Y-64756000D01*
D40*
%TO.N,GND*%
X106226600Y-81578400D02*
X106226600Y-78734061D01*
X104561000Y-80596423D02*
X103765077Y-79800500D01*
X104561000Y-82079000D02*
X104561000Y-80596423D01*
D41*
%TO.N,QSPI_CSn_Pull*%
X103826000Y-83811500D02*
X103338000Y-83323500D01*
X103338000Y-83323500D02*
X102754500Y-83323500D01*
X102754500Y-83323500D02*
X102500500Y-83069500D01*
X102500500Y-83069500D02*
X101484500Y-83069500D01*
X101484500Y-83069500D02*
X100751000Y-82336000D01*
X100751000Y-82336000D02*
X100751000Y-82079000D01*
%TO.N,RP_SD1*%
X104226000Y-83811500D02*
X104226000Y-83433882D01*
X104226000Y-83433882D02*
X103861618Y-83069500D01*
X102999960Y-83069500D02*
X102021000Y-82090540D01*
X103861618Y-83069500D02*
X102999960Y-83069500D01*
%TO.N,RP_SD2*%
X104626000Y-83434561D02*
X103291000Y-82099561D01*
D39*
%TO.N,/AD3*%
X91836994Y-86249000D02*
X91694000Y-86106006D01*
X101496600Y-86249000D02*
X91836994Y-86249000D01*
D41*
%TO.N,3.3V*%
X106986000Y-83771500D02*
X107026000Y-83811500D01*
X106986000Y-82699000D02*
X106986000Y-83771500D01*
D40*
X109166000Y-83271500D02*
X108626000Y-83811500D01*
X109166000Y-82699000D02*
X109166000Y-83271500D01*
D45*
%TO.N,/CART_RAUDIO*%
X77978000Y-57256000D02*
X71734000Y-57256000D01*
X71734000Y-57256000D02*
X69454000Y-54976000D01*
X69454000Y-54976000D02*
X66777000Y-54976000D01*
D40*
%TO.N,GND*%
X104645000Y-93558171D02*
X104815171Y-93388000D01*
X104026000Y-93669000D02*
X104136829Y-93558171D01*
X105726000Y-92469000D02*
X105726000Y-92369000D01*
X104815171Y-93379829D02*
X105726000Y-92469000D01*
X104026000Y-94569000D02*
X104026000Y-93669000D01*
X104815171Y-93388000D02*
X104815171Y-93379829D01*
X104136829Y-93558171D02*
X104645000Y-93558171D01*
D41*
%TO.N,/AD1*%
X102966500Y-85471000D02*
X102988500Y-85449000D01*
D39*
%TO.N,/AD3*%
X102988500Y-86249000D02*
X101528600Y-86249000D01*
%TO.N,/AD8*%
X102167817Y-88785520D02*
X90202691Y-88785520D01*
X102988500Y-88649000D02*
X102304337Y-88649000D01*
X90202691Y-88785520D02*
X89788996Y-88371825D01*
X102304337Y-88649000D02*
X102167817Y-88785520D01*
%TO.N,/AD10*%
X102988500Y-89449000D02*
X101528600Y-89449000D01*
X86655000Y-89449000D02*
X86233000Y-89027000D01*
X101528600Y-89449000D02*
X86655000Y-89449000D01*
%TO.N,/AD11*%
X102988500Y-89849000D02*
X101528600Y-89849000D01*
X101528600Y-89849000D02*
X83151000Y-89849000D01*
X83151000Y-89849000D02*
X83058000Y-89756000D01*
D41*
%TO.N,/AD15*%
X105026000Y-90294000D02*
X104140000Y-89408000D01*
X105026000Y-90686500D02*
X105026000Y-90294000D01*
%TO.N,GND*%
X135840000Y-79325000D02*
X135890000Y-79375000D01*
D40*
X110501539Y-81739000D02*
X111052600Y-82290061D01*
D42*
X133848000Y-83312000D02*
X133848000Y-89612000D01*
D40*
X108246000Y-81739000D02*
X110501539Y-81739000D01*
D41*
X134790600Y-56569600D02*
X134634000Y-56413000D01*
X102716000Y-92759000D02*
X102670600Y-92804400D01*
D45*
X101846000Y-83559000D02*
X102536000Y-83559000D01*
D41*
X105426000Y-90686500D02*
X105426000Y-89900000D01*
D40*
X102670600Y-92804400D02*
X102670600Y-94482061D01*
D41*
X105426000Y-89900000D02*
X105664000Y-89662000D01*
D42*
X111936000Y-88249000D02*
X113157801Y-88249000D01*
D41*
X100092000Y-88249000D02*
X100076000Y-88265000D01*
X106066000Y-81739000D02*
X106226600Y-81578400D01*
D40*
X108906000Y-91889000D02*
X108906000Y-92809000D01*
D45*
X102536000Y-83559000D02*
X102906000Y-83929000D01*
D40*
X102757539Y-94569000D02*
X104026000Y-94569000D01*
D41*
X102670600Y-94482061D02*
X102757539Y-94569000D01*
D40*
X107966000Y-94559000D02*
X108460455Y-94559000D01*
D41*
X111052600Y-83512400D02*
X111006000Y-83559000D01*
D40*
X100916000Y-88249000D02*
X100092000Y-88249000D01*
D42*
X133848000Y-83312000D02*
X135763000Y-83312000D01*
X133858000Y-79325000D02*
X135840000Y-79325000D01*
D41*
X108906000Y-94113461D02*
X108906000Y-94113455D01*
D40*
X111052600Y-82290061D02*
X111052600Y-83512400D01*
D41*
X135763000Y-83312000D02*
X135890000Y-83185000D01*
X106986000Y-81739000D02*
X106066000Y-81739000D01*
D42*
X133858000Y-73025000D02*
X133858000Y-79325000D01*
D40*
X108906000Y-92809000D02*
X108906000Y-94113461D01*
X108460455Y-94559000D02*
X108906000Y-94113455D01*
D39*
%TO.N,/READ*%
X109863500Y-89449000D02*
X110998000Y-89449000D01*
X110998000Y-89449000D02*
X111318600Y-89449000D01*
D40*
%TO.N,3.3V*%
X107435115Y-92206452D02*
X107946000Y-92717337D01*
X109863500Y-88249000D02*
X109434942Y-88249000D01*
X108626000Y-83811500D02*
X109026000Y-83811500D01*
X104598600Y-85147600D02*
X104598600Y-87640406D01*
X110876000Y-84649000D02*
X111006000Y-84519000D01*
X104598600Y-87640406D02*
X103990006Y-88249000D01*
X102988500Y-88249000D02*
X103990006Y-88249000D01*
X102988500Y-84649000D02*
X101976000Y-84649000D01*
X110086000Y-82751500D02*
X109026000Y-83811500D01*
X106404600Y-89077600D02*
X106626000Y-89299000D01*
X108588600Y-87402658D02*
X108588600Y-85086400D01*
X106626000Y-90686500D02*
X106626000Y-91176827D01*
X102988500Y-88249000D02*
X101876000Y-88249000D01*
X104818606Y-89077600D02*
X106404600Y-89077600D01*
X103990006Y-88249000D02*
X104818606Y-89077600D01*
X107026000Y-84649000D02*
X106527400Y-85147600D01*
X106626000Y-83811500D02*
X107026000Y-83811500D01*
X104100000Y-84649000D02*
X104598600Y-85147600D01*
X101976000Y-84649000D02*
X101846000Y-84519000D01*
X108588600Y-85086400D02*
X109026000Y-84649000D01*
X106527400Y-85147600D02*
X106118600Y-85147600D01*
D41*
X110086000Y-82699000D02*
X110086000Y-82751500D01*
D40*
X107435115Y-91985942D02*
X107435115Y-92206452D01*
X107026000Y-83811500D02*
X107026000Y-84649000D01*
X106626000Y-91176827D02*
X107435115Y-91985942D01*
X102988500Y-84649000D02*
X104100000Y-84649000D01*
X107946000Y-92717337D02*
X107946000Y-92809000D01*
X109863500Y-88249000D02*
X110978600Y-88249000D01*
X109863500Y-84649000D02*
X109026000Y-84649000D01*
X109026000Y-83811500D02*
X109026000Y-84649000D01*
X106626000Y-89299000D02*
X106626000Y-90686500D01*
X109863500Y-84649000D02*
X110876000Y-84649000D01*
X109434942Y-88249000D02*
X108588600Y-87402658D01*
X106118600Y-85147600D02*
X104598600Y-85147600D01*
D43*
%TO.N,Net-(F1-Pad2)*%
X128180000Y-48512000D02*
X128180000Y-49617000D01*
X123280000Y-48512000D02*
X123280000Y-49617000D01*
D39*
%TO.N,QSPI_CSn_Pull*%
X100811000Y-82079000D02*
X100811000Y-82396000D01*
X130058000Y-73025000D02*
X130058000Y-79325000D01*
%TO.N,RUN_PULL*%
X130048000Y-83312000D02*
X130048000Y-89612000D01*
D41*
%TO.N,RP_SD0*%
X105026000Y-83811500D02*
X105026000Y-83113650D01*
X105058940Y-83080710D02*
X105058940Y-75376940D01*
X105026000Y-83113650D02*
X105058940Y-83080710D01*
X105058940Y-75376940D02*
X104561000Y-74879000D01*
%TO.N,RP_CLK*%
X104270160Y-73888980D02*
X104851840Y-73888980D01*
X105426000Y-83194250D02*
X105426000Y-83811500D01*
X103291000Y-74879000D02*
X103291000Y-74868140D01*
X105312460Y-83080710D02*
X105426000Y-83194250D01*
X104851840Y-73888980D02*
X105312460Y-74349600D01*
X105312460Y-74349600D02*
X105312460Y-83080710D01*
X103291000Y-74868140D02*
X104270160Y-73888980D01*
%TO.N,/CART_NMI*%
X77924000Y-67310000D02*
X77978000Y-67256000D01*
D40*
%TO.N,Net-(U4-XIN)*%
X103456000Y-91799000D02*
X104026000Y-92369000D01*
X102716000Y-91799000D02*
X103456000Y-91799000D01*
X105826000Y-91209000D02*
X105592511Y-91442489D01*
X105592511Y-91442489D02*
X104952511Y-91442489D01*
X105826000Y-90686500D02*
X105826000Y-91209000D01*
X104952511Y-91442489D02*
X104026000Y-92369000D01*
%TO.N,Net-(C4-Pad1)*%
X105736000Y-94559000D02*
X105726000Y-94569000D01*
X107006000Y-94559000D02*
X105736000Y-94559000D01*
X107046000Y-93679000D02*
X107046000Y-94519000D01*
X107046000Y-94519000D02*
X107006000Y-94559000D01*
%TO.N,Net-(U4-VREG_VOUT)*%
X108258600Y-88894061D02*
X108258600Y-84681600D01*
X107799942Y-91889000D02*
X107946000Y-91889000D01*
D41*
X106066000Y-82699000D02*
X106226000Y-82859000D01*
D40*
X107026000Y-90686500D02*
X107026000Y-91115058D01*
D41*
X108226000Y-82719000D02*
X108246000Y-82699000D01*
X108226000Y-83811500D02*
X108226000Y-82719000D01*
D40*
X108258600Y-84681600D02*
X108226000Y-84649000D01*
X107026000Y-90686500D02*
X107026000Y-89299000D01*
X107026000Y-89299000D02*
X107249480Y-89075520D01*
X107249480Y-89075520D02*
X108077141Y-89075520D01*
X106226000Y-83811500D02*
X106226000Y-84649000D01*
X108226000Y-83811500D02*
X108226000Y-84649000D01*
X107026000Y-91115058D02*
X107799942Y-91889000D01*
D41*
X106226000Y-82859000D02*
X106226000Y-83811500D01*
D40*
X108077141Y-89075520D02*
X108258600Y-88894061D01*
D41*
%TO.N,Net-(U4-USB_DP)*%
X107426000Y-83079000D02*
X107426000Y-83811500D01*
X107148980Y-80889000D02*
X107492460Y-81232480D01*
X107492460Y-81232480D02*
X107492460Y-83012540D01*
X107492460Y-83012540D02*
X107426000Y-83079000D01*
%TO.N,Net-(U4-USB_DM)*%
X107745980Y-81232000D02*
X108088980Y-80889000D01*
X107826000Y-83079000D02*
X107745980Y-82998980D01*
X107826000Y-83811500D02*
X107826000Y-83079000D01*
X107745980Y-82998980D02*
X107745980Y-81232000D01*
D40*
%TO.N,Net-(U4-XOUT)*%
X106490751Y-91503347D02*
X106490751Y-91503751D01*
X106226000Y-90686500D02*
X106226000Y-91238596D01*
X106226000Y-91238596D02*
X106490751Y-91503347D01*
X106490751Y-91503751D02*
X107046000Y-92059000D01*
X107046000Y-92059000D02*
X107046000Y-92659000D01*
%TD*%
%TA.AperFunction,Conductor*%
%TO.N,3.3V*%
G36*
X132860321Y-56001602D02*
G01*
X132906814Y-56055258D01*
X132918200Y-56107600D01*
X132918200Y-57632600D01*
X133046200Y-57632600D01*
X133114321Y-57652602D01*
X133160814Y-57706258D01*
X133172200Y-57758600D01*
X133172200Y-60046600D01*
X133152198Y-60114721D01*
X133098542Y-60161214D01*
X133046200Y-60172600D01*
X131520200Y-60172600D01*
X131452079Y-60152598D01*
X131405586Y-60098942D01*
X131394200Y-60046600D01*
X131394200Y-57758600D01*
X131414202Y-57690479D01*
X131467858Y-57643986D01*
X131520200Y-57632600D01*
X131775200Y-57632600D01*
X131775200Y-56107600D01*
X131795202Y-56039479D01*
X131848858Y-55992986D01*
X131901200Y-55981600D01*
X132792200Y-55981600D01*
X132860321Y-56001602D01*
G37*
%TD.AperFunction*%
%TD*%
%TA.AperFunction,Conductor*%
%TO.N,GND*%
G36*
X138245121Y-52217002D02*
G01*
X138291614Y-52270658D01*
X138303000Y-52323000D01*
X138303000Y-54357000D01*
X138282998Y-54425121D01*
X138229342Y-54471614D01*
X138177000Y-54483000D01*
X135128000Y-54483000D01*
X135128000Y-56770000D01*
X135107998Y-56838121D01*
X135054342Y-56884614D01*
X135002000Y-56896000D01*
X134365000Y-56896000D01*
X134296879Y-56875998D01*
X134250386Y-56822342D01*
X134239000Y-56770000D01*
X134239000Y-52323000D01*
X134259002Y-52254879D01*
X134312658Y-52208386D01*
X134365000Y-52197000D01*
X138177000Y-52197000D01*
X138245121Y-52217002D01*
G37*
%TD.AperFunction*%
%TD*%
%TA.AperFunction,Conductor*%
%TO.N,/CART_12V*%
G36*
X112846039Y-46755685D02*
G01*
X112891794Y-46808489D01*
X112903000Y-46860000D01*
X112903000Y-49152000D01*
X112883315Y-49219039D01*
X112830511Y-49264794D01*
X112779000Y-49276000D01*
X108709000Y-49276000D01*
X108641961Y-49256315D01*
X108596206Y-49203511D01*
X108585000Y-49152000D01*
X108585000Y-46860000D01*
X108604685Y-46792961D01*
X108657489Y-46747206D01*
X108709000Y-46736000D01*
X112779000Y-46736000D01*
X112846039Y-46755685D01*
G37*
%TD.AperFunction*%
%TD*%
%TA.AperFunction,Conductor*%
%TO.N,GND*%
G36*
X109925039Y-56788685D02*
G01*
X109970794Y-56841489D01*
X109982000Y-56893000D01*
X109982000Y-58804000D01*
X109962315Y-58871039D01*
X109909511Y-58916794D01*
X109858000Y-58928000D01*
X106169000Y-58928000D01*
X106101961Y-58908315D01*
X106056206Y-58855511D01*
X106045000Y-58804000D01*
X106045000Y-56893000D01*
X106064685Y-56825961D01*
X106117489Y-56780206D01*
X106169000Y-56769000D01*
X109858000Y-56769000D01*
X109925039Y-56788685D01*
G37*
%TD.AperFunction*%
%TD*%
%TA.AperFunction,Conductor*%
%TO.N,5V*%
G36*
X130498787Y-53486685D02*
G01*
X130544542Y-53539489D01*
X130555748Y-53591251D01*
X130552918Y-54987918D01*
X130556000Y-55245000D01*
X130556000Y-56518000D01*
X130536315Y-56585039D01*
X130483511Y-56630794D01*
X130432000Y-56642000D01*
X129664000Y-56642000D01*
X129596961Y-56622315D01*
X129551206Y-56569511D01*
X129540000Y-56518000D01*
X129540000Y-54483000D01*
X127251000Y-54483000D01*
X127183961Y-54463315D01*
X127138206Y-54410511D01*
X127127000Y-54359000D01*
X127127000Y-53591000D01*
X127146685Y-53523961D01*
X127199489Y-53478206D01*
X127251000Y-53467000D01*
X130431748Y-53467000D01*
X130498787Y-53486685D01*
G37*
%TD.AperFunction*%
%TD*%
M02*
